<svg width="38" height="38" viewBox="0 0 38 38" fill="none" xmlns="http://www.w3.org/2000/svg">
<path d="M33.0918 38C32.9448 38 32.7918 37.993 32.6498 37.98H32.6258C26.9595 37.3599 21.5156 35.4282 16.7258 32.338C12.2819 29.5078 8.51024 25.7406 5.6748 21.3C2.56879 16.5026 0.631873 11.0432 0.0197956 5.361V5.34C-0.0413078 4.66228 0.0394161 3.97927 0.256825 3.33446C0.474233 2.68966 0.82356 2.09721 1.28255 1.59485C1.74154 1.09249 2.30013 0.691234 2.92274 0.41665C3.54535 0.142066 4.21833 0.000170303 4.8988 2.97705e-06H10.2578C11.4393 -0.00129874 12.5814 0.424323 13.4739 1.19848C14.3664 1.97264 14.9491 3.0432 15.1148 4.213V4.226C15.3277 5.82316 15.7205 7.39112 16.2858 8.9C16.6137 9.77701 16.6838 10.7296 16.4879 11.6451C16.2919 12.5607 15.838 13.4011 15.1798 14.067L15.1748 14.072L13.6698 15.572C15.8685 19.1075 18.8545 22.087 22.3948 24.278L23.9028 22.773L23.9078 22.768C24.5752 22.1101 25.4169 21.6569 26.3335 21.462C27.2502 21.2671 28.2035 21.3386 29.0808 21.668C30.5941 22.2312 32.166 22.622 33.7668 22.833H33.7788C34.9664 22.9994 36.0518 23.5956 36.8293 24.5086C37.6069 25.4216 38.0226 26.588 37.9978 27.787V33.087C37.9995 33.7321 37.8738 34.3711 37.628 34.9675C37.3821 35.5639 37.0209 36.1059 36.5651 36.5624C36.1093 37.0188 35.5678 37.3808 34.9718 37.6275C34.3758 37.8742 33.7369 38.0008 33.0918 38ZM32.9048 35.278C32.9668 35.283 33.0298 35.286 33.0918 35.286C33.3801 35.2868 33.6656 35.2306 33.9321 35.1207C34.1986 35.0108 34.4407 34.8493 34.6446 34.6455C34.8485 34.4417 35.0101 34.1997 35.1201 33.9332C35.2302 33.6668 35.2865 33.3813 35.2858 33.093V27.775C35.2858 27.7637 35.2858 27.7523 35.2858 27.741C35.2985 27.2057 35.1142 26.6844 34.7681 26.276C34.4219 25.8675 33.9379 25.6003 33.4078 25.525C31.6054 25.2871 29.8356 24.847 28.1318 24.213C27.7398 24.0658 27.3139 24.0335 26.9042 24.1199C26.4945 24.2064 26.1179 24.408 25.8188 24.701L23.5678 26.948C23.3577 27.1578 23.0846 27.293 22.7904 27.3327C22.4962 27.3725 22.197 27.3146 21.9388 27.168C17.2874 24.5278 13.4343 20.6817 10.7858 16.035C10.6385 15.7765 10.5802 15.4767 10.6199 15.1818C10.6597 14.8869 10.7953 14.6133 11.0058 14.403L13.2568 12.157C13.5492 11.8602 13.7506 11.486 13.8374 11.0785C13.9242 10.671 13.8928 10.2472 13.7468 9.857C13.1093 8.15607 12.6662 6.38851 12.4258 4.588C12.3479 4.06814 12.0864 3.59336 11.6888 3.2496C11.2911 2.90585 10.7835 2.71585 10.2578 2.714H4.8998C4.59702 2.7139 4.29753 2.77666 4.02027 2.89832C3.74302 3.01998 3.49404 3.19788 3.28911 3.42077C3.08419 3.64365 2.92777 3.90665 2.82977 4.19313C2.73177 4.4796 2.69432 4.7833 2.7198 5.085C3.28719 10.3417 5.07988 15.392 7.9538 19.83L7.9598 19.84C10.5836 23.9469 14.0738 27.4303 18.1858 30.046L18.1968 30.053C22.6273 32.9129 27.663 34.7018 32.9048 35.278Z" fill="white"/>
</svg>
