<svg width="38" height="38" viewBox="0 0 38 38" fill="none" xmlns="http://www.w3.org/2000/svg">
<path d="M5.64595 32.354C3.86767 30.6057 2.4532 28.5227 1.48419 26.2249C0.515177 23.9272 0.0108022 21.4603 0.000171622 18.9666C-0.0104589 16.4729 0.472866 14.0018 1.42225 11.6959C2.37164 9.39 3.76829 7.29493 5.53161 5.53161C7.29493 3.76829 9.39 2.37164 11.6959 1.42225C14.0018 0.472866 16.4729 -0.0104589 18.9666 0.000171622C21.4603 0.0108022 23.9272 0.515177 26.2249 1.48419C28.5227 2.4532 30.6057 3.86767 32.354 5.64595C34.1322 7.39417 35.5467 9.47726 36.5157 11.775C37.4847 14.0727 37.9891 16.5396 37.9997 19.0333C38.0104 21.527 37.527 23.9981 36.5777 26.304C35.6283 28.6099 34.2316 30.705 32.4683 32.4683C30.705 34.2316 28.6099 35.6283 26.304 36.5777C23.9981 37.527 21.527 38.0104 19.0333 37.9997C16.5396 37.9891 14.0727 37.4847 11.775 36.5157C9.47726 35.5467 7.39417 34.1322 5.64595 32.354ZM3.54807 19C3.54807 22.0561 4.4543 25.0435 6.15218 27.5846C7.85005 30.1256 10.2633 32.1061 13.0868 33.2756C15.9102 34.4452 19.0171 34.7512 22.0145 34.1549C25.0118 33.5587 27.7651 32.0871 29.9261 29.9261C32.0871 27.7651 33.5587 25.0118 34.1549 22.0145C34.7512 19.0171 34.4452 15.9102 33.2756 13.0868C32.1061 10.2633 30.1256 7.85005 27.5846 6.15218C25.0435 4.4543 22.0561 3.54807 19 3.54807C14.9034 3.55293 10.9759 5.18245 8.07919 8.07919C5.18245 10.9759 3.55293 14.9034 3.54807 19ZM25.0986 23.9675L18.2333 20.5313C17.9481 20.3896 17.7081 20.1713 17.5403 19.9008C17.3724 19.6303 17.2832 19.3183 17.2829 19V8.69631C17.2829 8.24091 17.4638 7.80416 17.7858 7.48214C18.1078 7.16012 18.5446 6.97921 19 6.97921C19.4554 6.97921 19.8921 7.16012 20.2141 7.48214C20.5362 7.80416 20.7171 8.24091 20.7171 8.69631V17.9372L26.6381 20.8978C26.9843 21.0706 27.2619 21.3554 27.4259 21.7058C27.5899 22.0563 27.6307 22.4519 27.5415 22.8285C27.4524 23.205 27.2386 23.5404 26.9349 23.7801C26.6312 24.0199 26.2553 24.15 25.8684 24.1492C25.601 24.1503 25.3373 24.088 25.0986 23.9675Z" fill="white"/>
</svg>
