<svg width="28" height="34" viewBox="0 0 28 34" fill="none" xmlns="http://www.w3.org/2000/svg">
<path d="M13.4431 33.8301C11.0278 32.1361 8.79239 30.1987 6.77204 28.0489C4.97103 26.1785 3.418 24.0844 2.15107 21.8179C0.800441 19.4625 0.0609613 16.8063 6.73552e-05 14.0918C-0.00565669 12.2432 0.353508 10.4117 1.05707 8.70218C1.76064 6.99268 2.79475 5.43895 4.10004 4.12991C5.39316 2.81843 6.93467 1.77798 8.63447 1.06888C10.3343 0.359771 12.1583 -0.00366357 14.0001 2.98811e-05C15.8418 -0.00379416 17.6658 0.359456 19.3655 1.06839C21.0653 1.77732 22.6069 2.81764 23.9001 4.12894C25.2054 5.43797 26.2395 6.99171 26.9431 8.7012C27.6466 10.4107 28.0058 12.2422 28.0001 14.0908C27.9392 16.8056 27.1991 19.4619 25.8471 21.8169C24.581 24.0834 23.0285 26.1775 21.2281 28.0479C19.2073 30.1973 16.972 32.1346 14.5571 33.8291C14.3922 33.9403 14.198 33.9998 13.9991 34C13.8009 34.0002 13.6072 33.9411 13.4431 33.8301ZM5.51704 5.54007C4.39671 6.66391 3.50928 7.99782 2.90559 9.46536C2.30189 10.9329 1.99385 12.505 1.99909 14.0918C1.99909 22.4588 11.5671 29.992 13.9991 31.774C16.0817 30.2427 18.0227 28.5278 19.799 26.6499C21.4743 24.9083 22.9195 22.9593 24.0991 20.8501C25.2846 18.792 25.9377 16.4706 25.9991 14.0962C26.0047 12.5095 25.6969 10.9373 25.0936 9.46976C24.4902 8.0022 23.6031 6.66791 22.4831 5.54398C21.3756 4.41916 20.0549 3.52651 18.5983 2.918C17.1418 2.30949 15.5786 1.99739 14.0001 2.00003C12.4218 1.99687 10.8587 2.30823 9.40217 2.91605C7.94564 3.52386 6.62488 4.41598 5.51704 5.54007ZM7.84211 14.062C7.84396 12.4292 8.49326 10.8638 9.64765 9.70901C10.802 8.55425 12.3672 7.90427 14.0001 7.90189C15.6329 7.90427 17.1981 8.55425 18.3525 9.70901C19.5069 10.8638 20.1562 12.4292 20.158 14.062C20.1562 15.6947 19.5068 17.2601 18.3524 18.4146C17.1979 19.569 15.6327 20.2184 14.0001 20.2202C12.3674 20.2184 10.8022 19.569 9.64777 18.4146C8.49333 17.2601 7.84396 15.6947 7.84211 14.062ZM9.89301 14.062C9.89566 15.1497 10.3293 16.192 11.0989 16.9605C11.8686 17.729 12.9115 18.1611 13.9991 18.1621C15.0857 18.1595 16.127 17.7264 16.8953 16.958C17.6637 16.1897 18.0964 15.1486 18.0991 14.062C18.098 12.9744 17.6659 11.9318 16.8974 11.1621C16.1289 10.3925 15.0867 9.95873 13.9991 9.95608C12.9107 9.95767 11.8674 10.391 11.0978 11.1607C10.3283 11.9304 9.89543 12.9736 9.89411 14.062H9.89301Z" fill="white"/>
</svg>
