<svg width="35" height="28" viewBox="0 0 35 28" fill="none" xmlns="http://www.w3.org/2000/svg">
<path d="M4.37185 28C3.2075 27.9926 2.09367 27.5239 1.27419 26.6968C0.454705 25.8696 -0.00344424 24.7513 1.9498e-05 23.5869V4.41309C-0.00344424 3.24872 0.454705 2.13039 1.27419 1.30322C2.09367 0.476053 3.2075 0.00740449 4.37185 0H29.6309C30.7952 0.00740449 31.9093 0.476053 32.7288 1.30322C33.5483 2.13039 34.0064 3.24872 34.0029 4.41309V23.5869C34.0064 24.7513 33.5483 25.8696 32.7288 26.6968C31.9093 27.5239 30.7952 27.9926 29.6309 28H4.37185ZM2.42995 23.5869C2.42568 24.1067 2.62766 24.607 2.99172 24.978C3.35578 25.349 3.85209 25.5604 4.37185 25.5659H29.6309C30.1505 25.5601 30.6468 25.3485 31.0108 24.9775C31.3748 24.6066 31.577 24.1066 31.573 23.5869V6.98096L17.7058 17.1362C17.5028 17.2854 17.2578 17.3662 17.0059 17.3672C16.754 17.3663 16.5089 17.2854 16.3059 17.1362L2.43898 6.98096L2.42995 23.5869ZM17 14.5801L31.5178 3.94922C31.419 3.52161 31.1792 3.1394 30.8369 2.86475C30.4946 2.5901 30.0697 2.43884 29.6309 2.43506H4.37185C3.93294 2.43866 3.50814 2.59007 3.16579 2.86475C2.82344 3.13943 2.58353 3.52152 2.48488 3.94922L17 14.5801Z" fill="white"/>
</svg>
