<svg width="1700" height="53" viewBox="0 0 1700 53" fill="none" xmlns="http://www.w3.org/2000/svg">
<path d="M1699.51 52.81C1699.47 52.8101 1699.43 52.8054 1699.39 52.796L1557.8 18.0878C1464.87 -4.69595 1367.81 -4.69595 1274.87 18.0878C1228.5 29.4509 1180.92 35.1975 1133.17 35.2039C1085.42 35.1975 1037.85 29.4509 991.471 18.0878C898.537 -4.69591 801.474 -4.69591 708.54 18.0878C662.163 29.4509 614.588 35.1975 566.839 35.2039C519.09 35.1975 471.515 29.4509 425.138 18.0878C332.203 -4.69595 235.141 -4.69595 142.206 18.0878L0.613357 52.796C0.48517 52.8262 0.350257 52.8046 0.237916 52.7358C0.125576 52.6671 0.0448804 52.5568 0.0133531 52.429C-0.0168468 52.3009 0.00463803 52.1661 0.0731502 52.0538C0.141662 51.9415 0.251681 51.8607 0.379355 51.829L141.963 17.1208C235.052 -5.70022 332.276 -5.70022 425.365 17.1208C471.666 28.4637 519.162 34.1993 566.832 34.2039C614.502 34.1977 661.999 28.4605 708.3 17.1158C801.389 -5.70526 898.612 -5.70526 991.701 17.1158C1038 28.4603 1085.5 34.1975 1133.17 34.2039C1180.84 34.1975 1228.33 28.4603 1274.63 17.1158C1367.72 -5.70522 1464.94 -5.70522 1558.03 17.1158L1699.62 51.824C1699.74 51.8528 1699.84 51.9242 1699.91 52.0247C1699.98 52.1252 1700.01 52.2479 1700 52.3694C1699.98 52.491 1699.92 52.6029 1699.83 52.6841C1699.74 52.7653 1699.62 52.8101 1699.5 52.81H1699.51Z" fill="white"/>
</svg>
