<svg width="1700" height="53" viewBox="0 0 1700 53" fill="none" xmlns="http://www.w3.org/2000/svg">
<path d="M1699.51 52.8102C1699.47 52.8103 1699.43 52.8056 1699.39 52.7962L1557.8 18.088C1464.87 -4.69574 1367.81 -4.69574 1274.87 18.088C1228.5 29.4511 1180.92 35.1977 1133.17 35.2041C1085.42 35.1977 1037.85 29.4511 991.471 18.088C898.537 -4.6957 801.474 -4.6957 708.54 18.088C662.163 29.4511 614.588 35.1977 566.839 35.2041C519.09 35.1977 471.515 29.4511 425.138 18.088C332.203 -4.69574 235.141 -4.69574 142.206 18.088L0.613357 52.7982C0.48517 52.8284 0.350257 52.8068 0.237916 52.7381C0.125576 52.6693 0.0448804 52.5591 0.0133531 52.4312C-0.0168468 52.3032 0.00463803 52.1684 0.0731502 52.056C0.141662 51.9437 0.251681 51.863 0.379355 51.8312L141.963 17.123C235.052 -5.69827 332.276 -5.69827 425.365 17.123C471.665 28.4671 519.161 34.204 566.831 34.2101C614.502 34.2019 661.999 28.4627 708.3 17.116C801.389 -5.70533 898.612 -5.70533 991.701 17.116C1038 28.4601 1085.5 34.197 1133.17 34.2031C1180.84 34.1969 1228.33 28.46 1274.63 17.116C1367.72 -5.70529 1464.94 -5.70529 1558.03 17.116L1699.62 51.8242C1699.74 51.853 1699.84 51.9244 1699.91 52.0249C1699.98 52.1254 1700.01 52.2481 1700 52.3696C1699.98 52.4912 1699.92 52.6031 1699.83 52.6843C1699.74 52.7656 1699.62 52.8103 1699.5 52.8102H1699.51Z" fill="white"/>
</svg>
