<svg width="1700" height="53" viewBox="0 0 1700 53" fill="none" xmlns="http://www.w3.org/2000/svg">
<path d="M1699.5 52.8159C1699.46 52.816 1699.42 52.8114 1699.38 52.8019L1557.8 18.0908C1464.87 -4.69295 1367.81 -4.69295 1274.87 18.0908C1228.49 29.4537 1180.92 35.2003 1133.17 35.2069C1085.42 35.2003 1037.85 29.4537 991.47 18.0908C898.536 -4.69291 801.473 -4.69291 708.539 18.0908C662.162 29.4537 614.587 35.2003 566.838 35.2069C519.089 35.2003 471.514 29.4537 425.137 18.0908C332.203 -4.69295 235.14 -4.69295 142.206 18.0908L0.613356 52.7989C0.485169 52.8291 0.350256 52.8075 0.237916 52.7388C0.125576 52.6701 0.0448804 52.5598 0.0133531 52.4319C-0.0168468 52.3039 0.00463802 52.1691 0.0731501 52.0568C0.141662 51.9444 0.25168 51.8637 0.379355 51.8319L141.96 17.1158C235.049 -5.70521 332.273 -5.70521 425.361 17.1158C471.663 28.4611 519.16 34.199 566.831 34.2058C614.501 34.1988 661.998 28.4609 708.299 17.1158C801.388 -5.70525 898.611 -5.70525 991.7 17.1158C1038 28.4598 1085.5 34.1966 1133.17 34.2029C1180.84 34.1967 1228.33 28.4599 1274.63 17.1158C1367.72 -5.70521 1464.95 -5.70521 1558.03 17.1158L1699.62 51.8239C1699.74 51.8527 1699.84 51.9241 1699.91 52.0246C1699.98 52.1251 1700.01 52.2478 1700 52.3694C1699.98 52.4909 1699.92 52.6029 1699.83 52.6841C1699.74 52.7653 1699.62 52.8101 1699.5 52.8099L1699.5 52.8159Z" fill="white"/>
</svg>
