<svg width="1700" height="53" viewBox="0 0 1700 53" fill="none" xmlns="http://www.w3.org/2000/svg">
<path d="M1699.5 52.8108C1699.46 52.8109 1699.42 52.8062 1699.38 52.7968L1557.8 18.0877C1464.86 -4.69593 1367.8 -4.69593 1274.87 18.0877C1228.49 29.4508 1180.92 35.1974 1133.17 35.2038C1085.42 35.1974 1037.84 29.4508 991.467 18.0877C898.533 -4.69589 801.471 -4.69589 708.537 18.0877C662.16 29.4508 614.585 35.1974 566.836 35.2038C519.088 35.1974 471.513 29.4508 425.136 18.0877C332.202 -4.69593 235.14 -4.69593 142.206 18.0877L0.613354 52.7968C0.485168 52.8269 0.350255 52.8053 0.237916 52.7366C0.125576 52.6679 0.0448802 52.5576 0.013353 52.4298C-0.0168468 52.3017 0.00463801 52.1669 0.0731499 52.0546C0.141662 51.9423 0.25168 51.8615 0.379354 51.8298L141.963 17.1207C235.051 -5.70019 332.275 -5.70019 425.363 17.1207C471.663 28.4652 519.159 34.2024 566.828 34.2087C614.499 34.201 661.996 28.4621 708.297 17.1157C801.385 -5.70524 898.609 -5.70524 991.697 17.1157C1038 28.4602 1085.49 34.1974 1133.16 34.2038C1180.83 34.1974 1228.33 28.4602 1274.63 17.1157C1367.72 -5.7052 1464.94 -5.7052 1558.03 17.1157L1699.62 51.8288C1699.74 51.8576 1699.84 51.9289 1699.91 52.0295C1699.98 52.13 1700.01 52.2527 1700 52.3742C1699.98 52.4957 1699.92 52.6077 1699.83 52.6889C1699.74 52.7701 1699.62 52.8149 1699.5 52.8148L1699.5 52.8108Z" fill="white"/>
</svg>
